<svg width="326" height="87" viewBox="0 0 326 87" fill="none" xmlns="http://www.w3.org/2000/svg">
<path d="M71.7812 67V18.75H81.9062C86.7604 18.75 90.5938 19.2292 93.4062 20.1875C96.4271 21.125 99.1667 22.7188 101.625 24.9688C106.604 29.5104 109.094 35.4792 109.094 42.875C109.094 50.2917 106.5 56.2917 101.312 60.875C98.7083 63.1667 95.9792 64.7604 93.125 65.6562C90.4583 66.5521 86.6771 67 81.7812 67H71.7812ZM79.0625 60.1562H82.3438C85.6146 60.1562 88.3333 59.8125 90.5 59.125C92.6667 58.3958 94.625 57.2396 96.375 55.6562C99.9583 52.3854 101.75 48.125 101.75 42.875C101.75 37.5833 99.9792 33.2917 96.4375 30C93.25 27.0625 88.5521 25.5938 82.3438 25.5938H79.0625V60.1562ZM139.375 36.5625H146.438V67H139.375V63.8125C136.479 66.5208 133.365 67.875 130.031 67.875C125.823 67.875 122.344 66.3542 119.594 63.3125C116.865 60.2083 115.5 56.3333 115.5 51.6875C115.5 47.125 116.865 43.3229 119.594 40.2812C122.323 37.2396 125.74 35.7188 129.844 35.7188C133.385 35.7188 136.562 37.1771 139.375 40.0938V36.5625ZM122.688 51.6875C122.688 54.6042 123.469 56.9792 125.031 58.8125C126.635 60.6667 128.656 61.5938 131.094 61.5938C133.698 61.5938 135.802 60.6979 137.406 58.9062C139.01 57.0521 139.812 54.6979 139.812 51.8438C139.812 48.9896 139.01 46.6354 137.406 44.7812C135.802 42.9688 133.719 42.0625 131.156 42.0625C128.74 42.0625 126.719 42.9792 125.094 44.8125C123.49 46.6667 122.688 48.9583 122.688 51.6875ZM162.562 43.125V67H155.531V43.125H152.531V36.5625H155.531V25.4062H162.562V36.5625H168.031V43.125H162.562ZM195.812 36.5625H202.875V67H195.812V63.8125C192.917 66.5208 189.802 67.875 186.469 67.875C182.26 67.875 178.781 66.3542 176.031 63.3125C173.302 60.2083 171.938 56.3333 171.938 51.6875C171.938 47.125 173.302 43.3229 176.031 40.2812C178.76 37.2396 182.177 35.7188 186.281 35.7188C189.823 35.7188 193 37.1771 195.812 40.0938V36.5625ZM179.125 51.6875C179.125 54.6042 179.906 56.9792 181.469 58.8125C183.073 60.6667 185.094 61.5938 187.531 61.5938C190.135 61.5938 192.24 60.6979 193.844 58.9062C195.448 57.0521 196.25 54.6979 196.25 51.8438C196.25 48.9896 195.448 46.6354 193.844 44.7812C192.24 42.9688 190.156 42.0625 187.594 42.0625C185.177 42.0625 183.156 42.9792 181.531 44.8125C179.927 46.6667 179.125 48.9583 179.125 51.6875ZM218.781 36.5625V54.0312C218.781 59.0729 220.771 61.5938 224.75 61.5938C228.729 61.5938 230.719 59.0729 230.719 54.0312V36.5625H237.75V54.1875C237.75 56.625 237.448 58.7292 236.844 60.5C236.26 62.0833 235.25 63.5104 233.812 64.7812C231.438 66.8438 228.417 67.875 224.75 67.875C221.104 67.875 218.094 66.8438 215.719 64.7812C214.26 63.5104 213.229 62.0833 212.625 60.5C212.042 59.0833 211.75 56.9792 211.75 54.1875V36.5625H218.781ZM246.625 36.5625H253.688V39.375C256.146 36.9375 258.917 35.7188 262 35.7188C265.542 35.7188 268.302 36.8333 270.281 39.0625C271.99 40.9583 272.844 44.0521 272.844 48.3438V67H265.781V50C265.781 47 265.365 44.9271 264.531 43.7812C263.719 42.6146 262.24 42.0312 260.094 42.0312C257.76 42.0312 256.104 42.8021 255.125 44.3438C254.167 45.8646 253.688 48.5208 253.688 52.3125V67H246.625V36.5625ZM280.312 51.5625C280.312 47.1667 281.885 43.4271 285.031 40.3438C288.177 37.2604 292.01 35.7188 296.531 35.7188C301.073 35.7188 304.927 37.2708 308.094 40.375C311.219 43.4792 312.781 47.2917 312.781 51.8125C312.781 56.375 311.208 60.1979 308.062 63.2812C304.896 66.3438 301.01 67.875 296.406 67.875C291.844 67.875 288.021 66.3125 284.938 63.1875C281.854 60.1042 280.312 56.2292 280.312 51.5625ZM287.5 51.6875C287.5 54.7292 288.312 57.1354 289.938 58.9062C291.604 60.6979 293.802 61.5938 296.531 61.5938C299.281 61.5938 301.479 60.7083 303.125 58.9375C304.771 57.1667 305.594 54.8021 305.594 51.8438C305.594 48.8854 304.771 46.5208 303.125 44.75C301.458 42.9583 299.26 42.0625 296.531 42.0625C293.844 42.0625 291.667 42.9583 290 44.75C288.333 46.5417 287.5 48.8542 287.5 51.6875Z" fill="white"/>
<path d="M2.31871 35.3137H32.3254C36.816 35.3137 40.4694 38.9671 40.4694 43.4577C40.4694 47.9484 36.816 51.6018 32.3254 51.6018H16.089C14.8084 51.6018 13.7703 52.6399 13.7703 53.9205C13.7703 55.2011 14.8084 56.2392 16.089 56.2392H32.3247C39.3723 56.2392 45.1062 50.5062 45.1062 43.4577C45.1062 36.4093 39.3723 30.6763 32.3247 30.6763H2.31871C1.03812 30.6763 0 31.7144 0 32.995C0 34.2756 1.03812 35.3137 2.31871 35.3137Z" fill="#78B650"/>
<path d="M32.3252 20H20.6865C19.4059 20 18.3678 21.0381 18.3678 22.3187C18.3678 23.5993 19.4059 24.6374 20.6865 24.6374H32.3252C42.7028 24.6374 51.1449 33.0801 51.1449 43.4577C51.1449 53.8354 42.7022 62.2783 32.3246 62.2783H2.7618C1.92728 62.2688 1.15205 62.7086 0.732015 63.4298C0.311985 64.151 0.311985 65.0422 0.732015 65.7634C1.15205 66.4846 1.92728 66.9244 2.7618 66.9149H32.3246C45.2591 66.9149 55.7823 56.392 55.7823 43.4571C55.7823 30.5223 45.26 20 32.3252 20Z" fill="#085229"/>
<path d="M15.2883 22.3187C15.2868 21.0387 14.2496 20.0015 12.9696 20H7.31871C6.03874 20.0015 5.00149 21.0387 5 22.3187C5 23.6032 6.02552 24.6374 6.87421 24.6374H12.5245C14.1521 24.6374 15.2883 23.6838 15.2883 22.3187Z" fill="#0293D6"/>
<path d="M15.2883 22.3187C15.2868 21.0387 14.2496 20.0015 12.9696 20H7.31871C6.03874 20.0015 5.00149 21.0387 5 22.3187C5 23.6032 6.02552 24.6374 6.87421 24.6374H12.5245C14.1521 24.6374 15.2883 23.6838 15.2883 22.3187Z" fill="#0293D6"/>
<path d="M20.7602 41.0002H7.34511C6.51048 40.9906 5.73515 41.4305 5.31506 42.1517C4.89498 42.873 4.89498 43.7644 5.31506 44.4857C5.73515 45.2069 6.51048 45.6468 7.34511 45.6373H20.7602C21.5949 45.6468 22.3702 45.2069 22.7903 44.4857C23.2104 43.7644 23.2104 42.873 22.7903 42.1517C22.3702 41.4305 21.5949 40.9906 20.7602 41.0002Z" fill="#EBE638"/>
</svg>
